<svg xmlns="http://www.w3.org/2000/svg" viewBox="0 0 50 50">
    <path d="M 24.935547 3 C 21.250547 3.083 18.558641 4.2106094 16.931641 6.3496094 C 15.005641 8.8836094 14.554625 13.066266 15.765625 18.197266 C 15.352625 18.728266 14.981125 19.576375 15.078125 20.734375 C 15.373125 22.898375 16.195234 23.788344 16.865234 24.152344 C 17.183234 25.871344 18.172641 27.825859 19.056641 28.755859 L 19.056641 32.308594 C 19.042641 32.342594 19.023813 32.37325 19.007812 32.40625 C 18.955813 32.51525 18.897172 32.620656 18.826172 32.722656 C 18.806172 32.751656 18.782719 32.779594 18.761719 32.808594 C 18.674719 32.923594 18.580656 33.035578 18.472656 33.142578 C 18.309656 33.304578 18.131781 33.459422 17.925781 33.607422 L 21.050781 37.414062 L 23.279297 34.642578 L 23.287109 34.646484 L 24.558594 33.074219 L 21.142578 31.042969 C 21.115578 31.026969 21.086594 31.026672 21.058594 31.013672 L 21.058594 28.300781 L 21.074219 27.728516 L 20.568359 27.441406 C 20.203359 27.178406 18.945625 25.196641 18.765625 23.306641 L 18.751953 22.410156 L 17.84375 22.410156 C 17.70175 22.354156 17.253406 21.879625 17.066406 20.515625 C 16.996406 19.677625 17.424828 19.330078 17.423828 19.330078 L 18.011719 18.9375 L 17.837891 18.253906 C 16.626891 13.469906 16.915437 9.6725938 18.523438 7.5585938 C 19.763437 5.9285938 21.934031 5.0670469 24.957031 4.9980469 C 26.848031 4.9980469 28.209359 5.4747344 28.693359 6.3027344 L 28.939453 6.7207031 L 29.419922 6.7871094 C 30.751922 6.9751094 31.427203 7.5614531 32.033203 8.5644531 C 33.482203 10.960453 33.226375 15.733109 32.359375 18.162109 L 32.042969 18.984375 L 32.835938 19.380859 C 32.924937 19.443859 33.165469 19.789859 33.105469 20.505859 C 32.969469 21.986859 32.500391 22.383391 32.400391 22.400391 L 31.533203 22.400391 L 31.410156 23.257812 C 31.122156 25.269813 29.880547 27.179641 29.560547 27.431641 L 29.056641 27.71875 L 29.056641 30.570312 L 31.544922 28.083984 C 32.194922 27.057984 32.995391 25.551453 33.275391 24.189453 C 33.992391 23.848453 34.888703 22.961641 35.095703 20.681641 C 35.189703 19.557641 34.879125 18.729312 34.453125 18.195312 C 35.302125 15.467313 35.541141 10.50225 33.744141 7.53125 C 32.891141 6.12225 31.856625 5.2267656 30.140625 4.8847656 C 29.174625 3.6647656 27.356547 3 24.935547 3 z M 36.900391 28 L 36.400391 31.199219 C 36.100391 31.299219 35.700391 31.499609 35.400391 31.599609 L 32.699219 29.699219 L 29.699219 32.699219 L 31.5 35.199219 C 31.3 35.499219 31.199609 35.900781 31.099609 36.300781 L 28 36.800781 L 28 41 L 31.099609 41.5 C 31.199609 41.8 31.4 42.2 31.5 42.5 L 29.699219 45.199219 L 32.699219 48.199219 L 35.400391 46.400391 C 35.800391 46.600391 36.1 46.700781 36.5 46.800781 L 36.900391 50 L 41.099609 50 L 41.599609 46.800781 C 41.899609 46.700781 42.299609 46.500391 42.599609 46.400391 L 45.300781 48.199219 L 48.300781 45.199219 L 46.400391 42.599609 C 46.600391 42.299609 46.700781 41.899609 46.800781 41.599609 L 50 41 L 50 36.800781 L 46.800781 36.300781 C 46.700781 36.000781 46.500391 35.600781 46.400391 35.300781 L 48.199219 32.599609 L 45.300781 29.699219 L 42.699219 31.599609 C 42.399219 31.399609 41.999219 31.299219 41.699219 31.199219 L 41.099609 28 L 36.900391 28 z M 16.138672 34.582031 C 15.523672 34.857031 14.855344 35.126297 14.152344 35.404297 C 10.250344 36.950297 5.3945469 38.876313 5.0605469 44.945312 L 5 46 L 22.15625 46 L 22.15625 45.599609 C 22.15625 41.900609 24.556641 37.800781 24.556641 37.800781 L 23.800781 37.185547 L 21.837891 39.626953 C 21.648891 39.860953 21.3635 39.998 21.0625 40 L 21.058594 40 C 20.759594 40 20.475156 39.865766 20.285156 39.634766 L 16.138672 34.582031 z M 39 36 C 40.7 36 42 37.3 42 39 C 42 40.7 40.7 42 39 42 C 37.3 42 36 40.7 36 39 C 36 37.3 37.3 36 39 36 z"/>
</svg>
